<svg xmlns="http://www.w3.org/2000/svg" width="1584" height="396" viewBox="0 0 1584 396" role="img" aria-label="CarbonTrack LinkedIn banner">
  <defs>
    <linearGradient id="bg" x1="0" y1="0" x2="1" y2="1">
      <stop offset="0%" stop-color="#0B1220"/>
      <stop offset="100%" stop-color="#111827"/>
    </linearGradient>
    <linearGradient id="g1" x1="0" y1="0" x2="1" y2="1">
      <stop offset="0%" stop-color="#16A34A" />
      <stop offset="100%" stop-color="#2563EB" />
    </linearGradient>
  </defs>
  <rect width="1584" height="396" fill="url(#bg)"/>
  <!-- Decorative orbits -->
  <g opacity="0.25" stroke="url(#g1)" fill="none">
    <circle cx="290" cy="198" r="160" stroke-width="4"/>
    <circle cx="290" cy="198" r="120" stroke-width="3"/>
    <circle cx="290" cy="198" r="80" stroke-width="2"/>
  </g>
  <!-- Left icon mark -->
  <g transform="translate(140,78)">
    <rect x="0" y="0" width="160" height="160" rx="28" fill="#0F172A" stroke="url(#g1)" stroke-width="4"/>
    <path d="M120 56c-26 0-52 21-64 47-11 22-33 38-56 38" fill="none" stroke="#16A34A" stroke-width="6" stroke-linecap="round"/>
    <path d="M56 146c0-31 12-57 33-78 21-21 47-33 78-33" fill="none" stroke="#2563EB" stroke-width="6" stroke-linecap="round"/>
    <path d="M62 110c0-25 19-46 46-46" fill="none" stroke="#F9FAFB" stroke-width="8" stroke-linecap="round"/>
    <path d="M156 138h-30c-13 0-23-10-23-23s10-23 23-23h30" fill="none" stroke="#F9FAFB" stroke-width="8" stroke-linecap="round"/>
  </g>
  <!-- Text -->
  <g font-family="Inter, system-ui, -apple-system, Segoe UI, Roboto, Ubuntu, Cantarell, Noto Sans, Helvetica Neue, Arial" fill="#E5E7EB">
    <text x="360" y="155" font-size="54" font-weight="700">CarbonTrack</text>
    <text x="360" y="205" font-size="26" fill="#9CA3AF">Track. Understand. Reduce.</text>
    <text x="360" y="252" font-size="18" fill="#93C5FD">Open-source, privacy-first carbon tracking for individuals and SMEs</text>
  </g>
</svg>
