<svg xmlns="http://www.w3.org/2000/svg" width="1024" height="1024" viewBox="0 0 1024 1024" role="img" aria-label="CarbonTrack logo mark">
  <defs>
    <linearGradient id="g1" x1="0" y1="0" x2="1" y2="1">
      <stop offset="0%" stop-color="#16A34A" />
      <stop offset="100%" stop-color="#2563EB" />
    </linearGradient>
  </defs>
  <rect width="1024" height="1024" rx="160" fill="#111827"/>
  <!-- Leaf / track motif -->
  <g transform="translate(192,192)">
    <circle cx="320" cy="320" r="280" fill="none" stroke="url(#g1)" stroke-width="40"/>
    <path d="M480 240c-80 0-160 64-196 144-32 68-100 116-172 116" fill="none" stroke="#16A34A" stroke-width="28" stroke-linecap="round"/>
    <path d="M240 560c0-96 36-176 100-240s144-100 240-100" fill="none" stroke="#2563EB" stroke-width="28" stroke-linecap="round"/>
    <!-- Stylized CT -->
    <path d="M250 350c0-77 59-140 140-140" fill="none" stroke="#F9FAFB" stroke-width="36" stroke-linecap="round"/>
    <path d="M540 430h-90c-40 0-70-30-70-70s30-70 70-70h90" fill="none" stroke="#F9FAFB" stroke-width="36" stroke-linecap="round"/>
  </g>
</svg>
